<svg xmlns="http://www.w3.org/2000/svg" viewBox="0 0 512 512"><style type="text/css">  
	.st0{fill:#21D8DE;}
	.st1{fill:#FFFFFF;}
	.st2{fill:#242D3C;}
	.st3{fill:#F15424;stroke:#F15424;stroke-width:3;stroke-miterlimit:10;}
</style><circle class="st0" cx="256" cy="256" r="256"/><rect x="161.9" y="161.9" class="st1" width="188.3" height="188.3"/><polygon class="st2" points="381.4 381.4 369.4 381.4 369.4 377.6 377.6 377.6 377.6 369.4 381.4 369.4 "/><path class="st2" d="M348.7 381.4h-20.6v-3.8h20.6V381.4zM307.5 381.4h-20.6v-3.8h20.6V381.4zM266.3 381.4h-20.6v-3.8h20.6V381.4L266.3 381.4zM225.1 381.4h-20.6v-3.8h20.6V381.4zM183.9 381.4h-20.6v-3.8h20.6V381.4z"/><polygon class="st2" points="142.6 381.4 130.6 381.4 130.6 369.4 134.4 369.4 134.4 377.6 142.6 377.6 "/><path class="st2" d="M134.4 348.7h-3.8v-20.6h3.8V348.7zM134.4 307.5h-3.8v-20.6h3.8V307.5zM134.4 266.3h-3.8v-20.6h3.8V266.3zM134.4 225.1h-3.8v-20.6h3.8V225.1zM134.4 183.9h-3.8v-20.6h3.8V183.9z"/><polygon class="st2" points="134.4 142.6 130.6 142.6 130.6 130.6 142.6 130.6 142.6 134.4 134.4 134.4 "/><path class="st2" d="M348.7 134.4h-20.6v-3.8h20.6V134.4zM307.5 134.4h-20.6v-3.8h20.6V134.4zM266.3 134.4h-20.6v-3.8h20.6V134.4zM225.1 134.4h-20.6v-3.8h20.6L225.1 134.4 225.1 134.4zM183.9 134.4h-20.6v-3.8h20.6V134.4z"/><polygon class="st2" points="381.4 142.6 377.6 142.6 377.6 134.4 369.4 134.4 369.4 130.6 381.4 130.6 "/><path class="st2" d="M381.4 348.7h-3.8v-20.6h3.8V348.7zM381.4 307.5h-3.8v-20.6h3.8V307.5zM381.4 266.3h-3.8v-20.6h3.8V266.3zM381.4 225.1h-3.8v-20.6h3.8V225.1zM381.4 183.9h-3.8v-20.6h3.8V183.9z"/><polygon class="st2" points="115.6 141.7 115.6 115.6 141.7 115.6 "/><polygon class="st2" points="396.4 141.7 370.3 115.6 396.4 115.6 "/><polygon class="st2" points="141.7 396.4 115.6 396.4 115.6 370.3 "/><polygon class="st2" points="396.4 396.4 370.3 396.4 396.4 370.3 "/><path class="st3" d="M306 197.7c0 6.1-2.7 9.1-8.1 9.1 -1.9 0-3.5-0.6-5.1-1.9 -1.5-1.3-2.3-2.7-2.3-4.3 0-0.5 0.2-1.4 0.6-2.5 0.4-1.1 0.6-2 0.6-2.7 0-1.7-0.9-2.6-2.8-2.6 -1.6 0-3.1 0.8-4.6 2.5 -1.5 1.7-2.2 3.3-2.2 5.1 0 0.4 0.3 2.6 1 6.7 0.7 4.1 1 7.2 1 9.3 0 9-3.1 16.5-9.3 22.6 -6.2 6.1-13.9 9.1-23.2 9.1 -2.4 0-6.7-1-13.1-3 -1.7-0.5-2.8-0.8-3.4-0.8 -2.8 0-5.3 1.1-7.5 3.4 -2.2 2.2-3.4 4.7-3.4 7.3 0 6.9 4.2 10.3 12.5 10.3 3.2 0 8.3-0.6 15.3-1.8 5.4-0.9 10.4-1.4 14.9-1.4 8.1 0 14.4 2.1 18.9 6.3 4.6 4.2 6.8 10.1 6.8 17.6 0 11.4-4.9 20.8-14.6 28.4 -9.7 7.5-22 11.3-36.8 11.3 -11 0-19.6-2.2-25.9-6.6 -6.3-4.4-9.4-10.5-9.4-18.3 0-7.5 2.9-13.2 8.7-17.1 2.9-1.9 7.5-3.5 13.9-5 -9.4-3.7-14.1-9.4-14.1-17.1 0-9.5 6.1-16.1 18.2-19.8 -7.9-6.2-11.9-14.4-11.9-24.6 0-9.5 3-17.2 9.1-22.9 6.1-5.8 14.1-8.6 24-8.6 5.4 0 9.8 0.7 13.2 2.2 3.4 1.5 7.3 4.4 11.8 8.7 4.2-6.2 9.5-9.3 15.7-9.3C302.2 187.6 306 191 306 197.7zM284.4 293.3c0-11-6.5-16.5-19.4-16.5 -3.7 0-9.1 0.6-16.3 1.8 -7.2 1.2-12.6 1.8-16.1 1.8 -6.7 3.6-10.1 9.8-10.1 18.8 0 6.7 2.4 12.2 7.2 16.3 4.8 4.1 11.2 6.1 19.1 6.1 10 0 18.4-2.7 25.3-8.2C280.9 307.9 284.4 301.2 284.4 293.3zM269.1 217.3c0-19.2-5.3-28.8-15.9-28.8 -10.3 0-15.5 8.9-15.5 26.8 0 20.1 5.5 30.1 16.5 30.1C264.1 245.5 269.1 236.1 269.1 217.3z"/></svg>